<svg width="32" height="32" viewBox="0 0 32 32" fill="none" xmlns="http://www.w3.org/2000/svg">
<path d="M24.187 11.62L23.7505 10.849C23.4205 10.2655 23.2555 9.9745 22.9735 9.859C22.693 9.742 22.375 9.8335 21.7405 10.018L20.6605 10.327C20.2546 10.4215 19.8282 10.3672 19.459 10.174L19.1605 10C18.8415 9.79075 18.5973 9.48557 18.463 9.1285L18.1675 8.2315C17.974 7.6375 17.8765 7.3405 17.6455 7.1695C17.4145 6.9985 17.107 7 16.495 7H15.508C14.893 7 14.587 7 14.356 7.1695C14.125 7.3405 14.0275 7.6375 13.834 8.2315L13.5385 9.1285C13.4039 9.48502 13.1597 9.78964 12.841 9.9985L12.5425 10.174C12.172 10.369 11.7475 10.4215 11.341 10.327L10.261 10.018C9.62648 9.8335 9.30849 9.742 9.02799 9.859C8.74599 9.9745 8.58099 10.2655 8.25099 10.849L7.81449 11.62C7.50549 12.166 7.34949 12.4405 7.37949 12.73C7.40949 13.021 7.61799 13.255 8.03199 13.7245L8.94399 14.7625C9.16748 15.049 9.32499 15.55 9.32499 16C9.32499 16.45 9.16748 16.9495 8.94399 17.2375L8.03199 18.2755C7.61799 18.7435 7.40949 18.9775 7.37949 19.2685C7.34949 19.5595 7.50549 19.834 7.81449 20.3785L8.25099 21.151C8.58099 21.733 8.74599 22.0255 9.02799 22.141C9.30849 22.258 9.62648 22.1665 10.261 21.982L11.341 21.673C11.7469 21.5785 12.1732 21.6327 12.5425 21.826L12.841 22C13.159 22.207 13.402 22.513 13.5385 22.8715L13.834 23.77C14.0275 24.364 14.125 24.6595 14.356 24.8305C14.587 25.0015 14.8945 25 15.508 25H16.495C17.11 25 17.416 25 17.647 24.8305C17.878 24.6595 17.9755 24.364 18.169 23.77L18.4645 22.8715C18.5995 22.5115 18.844 22.207 19.162 22.0015L19.4605 21.826C19.831 21.631 20.2555 21.5785 20.662 21.673L21.742 21.982C22.3765 22.1665 22.6945 22.258 22.975 22.141C23.257 22.0255 23.422 21.733 23.752 21.151L24.1885 20.38C24.4975 19.834 24.6535 19.5595 24.6235 19.27C24.5935 18.9775 24.385 18.745 23.971 18.2755L23.059 17.2375C22.8355 16.951 22.678 16.45 22.678 16C22.678 15.55 22.8355 15.049 23.059 14.7625L23.971 13.7245C24.385 13.2565 24.5935 13.021 24.622 12.7315C24.6505 12.442 24.4975 12.166 24.1885 11.6215" stroke="black" stroke-width="1.5" stroke-linecap="round" stroke-linejoin="round"/>
<path d="M16 18.625C17.4497 18.625 18.625 17.4497 18.625 16C18.625 14.5503 17.4497 13.375 16 13.375C14.5503 13.375 13.375 14.5503 13.375 16C13.375 17.4497 14.5503 18.625 16 18.625Z" stroke="black" stroke-width="1.5" stroke-linecap="round" stroke-linejoin="round"/>
<path d="M26.5 1.00001V5.28851C23.6989 2.53576 19.9273 0.995355 16 1.00001C7.7155 1.00001 1 7.71551 1 16C0.998655 18.0646 1.42352 20.1072 2.248 22M5.5 31V26.7115C8.30112 29.4642 12.0727 31.0046 16 31C24.2845 31 31 24.2845 31 16C31.0013 13.9354 30.5765 11.8928 29.752 10" stroke="black" stroke-width="1.5" stroke-linecap="round" stroke-linejoin="round"/>
</svg>
